Coordinates
version=1
nRows=16
nColumns=40
inDegrees=yes

Units are S.I. units (second, meters, Newtons, ...)
Angles are in degrees.

endheader
time	pelvis_tilt	pelvis_list	pelvis_rotation	pelvis_tx	pelvis_ty	pelvis_tz	hip_flexion_r	hip_adduction_r	hip_rotation_r	knee_angle_r	knee_angle_r_beta	ankle_angle_r	subtalar_angle_r	mtp_angle_r	hip_flexion_l	hip_adduction_l	hip_rotation_l	knee_angle_l	knee_angle_l_beta	ankle_angle_l	subtalar_angle_l	mtp_angle_l	lumbar_extension	lumbar_bending	lumbar_rotation	arm_flex_r	arm_add_r	arm_rot_r	elbow_flex_r	pro_sup_r	wrist_flex_r	wrist_dev_r	arm_flex_l	arm_add_l	arm_rot_l	elbow_flex_l	pro_sup_l	wrist_flex_l	wrist_dev_l
      1.96000000	     -1.32043610	      1.33412919	      3.38429496	      0.47163957	      0.96375339	     -0.95314522	      2.59128061	     -1.05843351	    -21.80608635	    -14.80187001	     -0.25834137	      7.13961770	     -0.99882521	    -10.64789110	     19.86101573	      6.01626033	     17.57641612	    -23.93212960	     -0.41769446	      2.42601397	     10.91124613	      6.77940117	     -4.41994149	     -2.05146808	      4.59461292	      9.27198633	    -11.32185349	    -11.91526097	     23.73994414	     89.95437384	      0.00000000	      0.00000000	     -8.02622086	     10.57256194	      5.40456184	     14.80729304	     89.95437384	      0.00000000	      0.00000000
      1.97000000	     -1.32987526	      1.46537187	      3.10059596	      0.47880320	      0.96315629	     -0.95355952	      2.03954854	     -1.18825789	    -21.67508624	    -14.62654334	     -0.25528134	      7.53628525	     -0.96143742	    -10.77272208	     19.98833438	      5.77878053	     17.82161611	    -21.57959024	     -0.37663490	      2.13054647	      9.38068162	      6.74001237	     -4.44400746	     -2.21198671	      4.80014029	      9.61825555	    -11.44706410	    -11.51885232	     24.16448810	     89.95437384	      0.00000000	      0.00000000	     -8.28141177	     10.48560483	      5.80827892	     14.54115544	     89.95437384	      0.00000000	      0.00000000
      1.98000000	     -1.44342900	      1.32615241	      2.87533804	      0.48580192	      0.96226289	     -0.95405131	      1.67599834	     -1.05763865	    -21.68055863	    -14.57486638	     -0.25437941	      7.80453974	     -0.84595711	    -10.84624691	     20.37674087	      5.81102448	     17.63400108	    -19.53700885	     -0.34098513	      2.05171885	      8.08462859	      6.66772126	     -4.33124803	     -2.03980867	      4.97302902	      9.97388319	    -11.57241290	    -11.34623097	     24.53285621	     89.95437384	      0.00000000	      0.00000000	     -8.56089820	     10.35655465	      6.11001020	     14.36052609	     89.95437384	      0.00000000	      0.00000000
      1.99000000	     -0.91078092	      1.71439196	      2.45027620	      0.49346560	      0.96254987	     -0.95447230	      0.52802683	     -1.54881640	    -21.76418301	    -14.51000129	     -0.25324730	      8.20765873	     -0.17611012	    -11.23606753	     19.70558559	      5.47988148	     18.61064757	    -17.13130603	     -0.29899770	      1.36965280	      5.46726991	      6.38315358	     -4.99511248	     -2.47398385	      5.13929868	     10.44642549	    -11.63497582	    -10.80454130	     24.91664324	     89.95437384	      0.00000000	      0.00000000	     -8.70198663	     10.17812926	      7.39159974	     14.01246433	     89.95437384	      0.00000000	      0.00000000
      2.00000000	     -0.90951020	      1.74727900	      2.16186023	      0.50081504	      0.96174766	     -0.95510832	      0.03663455	     -1.68225195	    -21.84868121	    -14.53072584	     -0.25360901	      8.60696807	      0.49241298	    -11.72696409	     19.91306268	      5.44750871	     19.04846237	    -15.28596646	     -0.26679044	      0.87815349	      3.21113537	      5.82046916	     -5.02065920	     -2.51793860	      5.28241312	     10.80739662	    -11.71822288	    -10.50258112	     25.23630602	     89.95437384	      0.00000000	      0.00000000	     -8.90225054	     10.03885813	      8.00326409	     13.71067107	     89.95437384	      0.00000000	      0.00000000
      2.01000000	     -0.95720151	      1.83892598	      1.86786001	      0.50810209	      0.96086793	     -0.95573178	     -0.38394108	     -1.84637353	    -21.73048608	    -14.56098906	     -0.25413720	      8.96166653	      0.65389260	    -12.09005079	     20.15669419	      5.31216820	     19.37253740	    -13.47808944	     -0.23523704	      0.21410320	      1.35291600	      5.46699977	     -5.00112771	     -2.64691121	      5.41588731	     11.13605464	    -11.70602757	    -10.51385413	     25.57085870	     89.95437384	      0.00000000	      0.00000000	     -9.12322047	      9.94122682	      8.35762235	     13.49478573	     89.95437384	      0.00000000	      0.00000000
      2.02000000	     -1.15817265	      1.78774070	      1.63078540	      0.51533741	      0.95963830	     -0.95642324	     -0.62502573	     -1.83734496	    -21.48913256	    -14.58684632	     -0.25458850	      9.31206650	      0.72551619	    -12.24372102	     20.64180116	      5.27984264	     19.24703065	    -11.90779208	     -0.20783018	     -0.23462305	      0.08332949	      5.40615332	     -4.78715083	     -2.61785133	      5.51555065	     11.44532230	    -11.71680598	    -10.40403755	     25.82007205	     89.95437384	      0.00000000	      0.00000000	     -9.33849396	      9.85443708	      8.52551361	     13.25687605	     89.95437384	      0.00000000	      0.00000000
      2.03000000	     -1.24953014	      1.85030158	      1.32863759	      0.52268873	      0.95859364	     -0.95697521	     -0.97409203	     -1.96421450	    -21.23193748	    -14.67377410	     -0.25610567	      9.69368648	      0.76764352	    -12.41918195	     20.93167433	      5.18120478	     19.42522752	    -10.37927146	     -0.18115246	     -1.01297193	     -1.22350492	      5.41593881	     -4.70606044	     -2.73953064	      5.63978956	     11.74109884	    -11.67085224	    -10.33446148	     26.08684794	     89.95437384	      0.00000000	      0.00000000	     -9.52519407	      9.78099488	      8.80253160	     13.06365418	     89.95437384	      0.00000000	      0.00000000
      2.04000000	     -1.36912626	      1.80045559	      1.11548960	      0.53020319	      0.95740601	     -0.95779550	     -1.37334448	     -1.98627304	    -21.32494126	    -14.60864188	     -0.25496890	      9.97774937	      0.74558814	    -12.47867618	     21.49868816	      5.22521363	     19.78414126	     -9.55700373	     -0.16680118	     -1.18223702	     -1.57426620	      5.41455556	     -4.57287113	     -2.72552542	      5.71045256	     12.01108632	    -11.62939283	    -10.36564228	     26.28054265	     89.95437384	      0.00000000	      0.00000000	     -9.71260326	      9.70639877	      8.83419620	     12.89848845	     89.95437384	      0.00000000	      0.00000000
      2.05000000	     -1.46056982	      1.91793014	      0.76919019	      0.53774707	      0.95630960	     -0.95846127	     -1.77496414	     -2.17165042	    -20.88578637	    -14.59821524	     -0.25478692	     10.37729059	      0.88076205	    -12.62521473	     21.74159898	      5.09702358	     20.05648678	     -8.35870417	     -0.14588691	     -2.05756392	     -2.48379074	      5.52225867	     -4.47335019	     -2.91496544	      5.92985174	     12.17386051	    -11.56106310	    -10.39952290	     26.51861936	     89.95437384	      0.00000000	      0.00000000	     -9.84471267	      9.66843153	      8.98685090	     12.77190803	     89.95437384	      0.00000000	      0.00000000
      2.06000000	     -1.17890827	      2.29811834	      0.28780779	      0.54588600	      0.95586652	     -0.95907989	     -2.55520908	     -2.71842232	    -20.58564530	    -14.71212339	     -0.25677499	     10.78469114	      1.12978153	    -12.92103692	     21.49209977	      4.80388366	     21.27348410	     -7.33240816	     -0.12797466	     -3.31944854	     -3.53859947	      5.56727905	     -4.77248627	     -3.41954959	      6.16933225	     12.36849842	    -11.35149222	    -10.70069269	     26.82765441	     89.95437384	      0.00000000	      0.00000000	     -9.98332227	      9.62330966	      9.39536745	     12.65826043	     89.95437384	      0.00000000	      0.00000000
      2.07000000	     -1.14422330	      2.36517522	      0.09622401	      0.55387181	      0.95488402	     -0.96009783	     -3.15018448	     -2.89800802	    -20.65364950	    -14.66803485	     -0.25600550	     11.09589490	      1.43623475	    -13.07064418	     21.84545809	      4.78944609	     21.84120134	     -7.17242250	     -0.12518239	     -3.69917034	     -3.69403812	      5.47189576	     -4.79054283	     -3.56257160	      6.19340958	     12.49983636	    -11.25656298	    -10.72045264	     26.99979707	     89.95437384	      0.00000000	      0.00000000	    -10.10732542	      9.59465432	      9.43653553	     12.53720675	     89.95437384	      0.00000000	      0.00000000
      2.08000000	     -1.22289526	      2.31982433	     -0.10659980	      0.56179830	      0.95358739	     -0.96114345	     -3.50681173	     -2.99925361	    -20.68394460	    -14.85685774	     -0.25930108	     11.12708871	      1.37197613	    -12.96183076	     22.33280790	      4.86336684	     21.91631321	     -7.28068285	     -0.12707189	     -3.70809371	     -3.50840396	      5.40850018	     -4.65627982	     -3.57277302	      6.19990970	     12.56240814	    -11.15051490	    -10.70203767	     27.23538337	     89.95437384	      0.00000000	      0.00000000	    -10.32704699	      9.57094782	      9.38973712	     12.59728660	     89.95437384	      0.00000000	      0.00000000
      2.09000000	     -0.88060445	      2.60083552	     -0.37574496	      0.57030875	      0.95308471	     -0.96234452	     -4.47327961	     -3.51187175	    -21.00115390	    -14.83520268	     -0.25892313	     11.63972528	      2.45109330	    -13.44955724	     22.25399049	      4.66177170	     22.71818412	     -7.49784780	     -0.13086213	     -4.26211226	     -3.19700631	      5.17742560	     -4.98224055	     -3.95666893	      6.37646696	     12.55409155	    -10.97970334	    -11.09691694	     27.48362086	     89.95437384	      0.00000000	      0.00000000	    -10.32137075	      9.58940085	      9.17426744	     12.50738389	     89.95437384	      0.00000000	      0.00000000
      2.10000000	     -0.92322917	      2.62551465	     -0.55237008	      0.57870662	      0.95186981	     -0.96383614	     -4.91780638	     -3.71794393	    -21.03931006	    -15.00397029	     -0.26186868	     11.81867250	      2.38208547	    -13.37125305	     22.66689529	      4.69400888	     22.68068591	     -8.03243991	     -0.14019252	     -4.41275599	     -2.79128872	      5.10815803	     -4.83184349	     -4.02479879	      6.40673380	     12.47770539	    -10.89967991	    -11.08130179	     27.65788216	     89.95437384	      0.00000000	      0.00000000	    -10.45187802	      9.53138514	      9.08675107	     12.51750550	     89.95437384	      0.00000000	      0.00000000
      2.11000000	     -0.82356831	      2.72945502	     -0.72150233	      0.58705595	      0.95086879	     -0.96530852	     -5.49299323	     -4.03073525	    -20.99595153	    -15.22901621	     -0.26579647	     12.11871221	      2.59763025	    -13.40432971	     22.98527680	      4.67718672	     22.47749767	     -8.91465047	     -0.15559000	     -4.45173518	     -2.09049772	      4.94848296	     -4.89830377	     -4.21274780	      6.41281439	     12.40163685	    -10.76742431	    -11.16825758	     27.88628648	     89.95437384	      0.00000000	      0.00000000	    -10.47964121	      9.52987226	      8.91016439	     12.47149460	     89.95437384	      0.00000000	      0.00000000
